<?xml version="1.0" standalone="no"?>
<!DOCTYPE svg PUBLIC "-//W3C//DTD SVG 20010904//EN"
 "http://www.w3.org/TR/2001/REC-SVG-20010904/DTD/svg10.dtd">
<svg version="1.0" xmlns="http://www.w3.org/2000/svg"
 width="1381.000000pt" height="1090.000000pt" viewBox="0 0 1381.000000 1090.000000"
 preserveAspectRatio="xMidYMid meet">
<metadata>
Created by potrace 1.16, written by Peter Selinger 2001-2019
</metadata>
<g transform="translate(0.000000,1090.000000) scale(0.100000,-0.100000)"
fill="#000000" stroke="none">
<path d="M4171 10879 c-11 -13 -426 -494 -921 -1068 -496 -574 -899 -1045
-896 -1048 2 -2 381 253 841 567 460 315 838 570 839 569 1 -2 209 -399 461
-881 l458 -878 429 0 428 0 -13 33 c-8 17 -197 461 -421 985 -224 525 -405
956 -402 959 3 3 271 -22 597 -56 325 -34 593 -61 594 -59 8 10 -74 323 -86
330 -25 15 -1803 558 -1846 565 -36 5 -45 2 -62 -18z m191 -309 c66 -162 74
-176 123 -199 114 -54 140 -200 50 -280 -92 -81 -227 -49 -270 64 -22 55 -15
103 20 156 14 21 25 48 25 59 0 12 -16 76 -35 143 -19 67 -35 125 -35 128 0 9
51 28 69 26 8 -1 32 -44 53 -97z"/>
<path d="M9590 10886 c-301 -88 -1788 -551 -1796 -560 -11 -10 -86 -317 -80
-324 2 -1 270 25 595 59 326 34 594 59 597 56 2 -2 -183 -442 -412 -978 -229
-536 -418 -980 -421 -986 -4 -10 84 -13 423 -13 l429 0 459 878 c252 482 460
878 461 880 2 2 380 -254 840 -568 460 -315 838 -570 841 -568 2 3 -402 475
-898 1050 -497 575 -907 1053 -913 1062 -13 23 -70 28 -125 12z m19 -227 c17
-6 31 -13 31 -16 0 -2 -16 -59 -35 -126 -40 -138 -43 -177 -16 -201 30 -27 45
-95 31 -144 -23 -87 -121 -147 -202 -123 -147 44 -175 226 -48 308 78 49 85
59 136 187 27 69 54 126 60 126 6 0 25 -5 43 -11z"/>
<path d="M6831 9399 c-233 -35 -433 -206 -508 -433 -23 -70 -27 -98 -27 -201
0 -105 4 -130 28 -200 15 -44 44 -107 65 -140 l37 -60 -94 -162 -95 -163
-1307 0 -1307 0 -588 -1307 c-323 -720 -590 -1316 -592 -1325 -5 -17 55 -18
1121 -20 l1126 -3 -390 -670 c-348 -596 -413 -714 -381 -680 17 19 490 684
503 708 7 14 530 747 1162 1631 1278 1786 1182 1663 1310 1673 94 8 136 -15
216 -120 715 -933 831 -1086 1773 -2334 279 -369 507 -674 507 -678 0 -8 637
-854 663 -880 13 -13 18 -15 15 -5 -3 8 -191 316 -417 683 -226 368 -411 670
-411 673 0 2 481 5 1069 6 l1070 3 -594 1320 -593 1320 -1293 3 -1294 2 -93
152 -93 152 31 42 c81 114 120 235 120 379 0 185 -57 323 -185 450 -86 86
-157 130 -266 163 -81 25 -203 34 -288 21z m190 -149 c244 -45 432 -302 392
-535 -50 -290 -337 -478 -605 -395 -247 76 -396 333 -333 575 23 85 62 152
130 220 115 115 264 163 416 135z"/>
<path d="M6864 9130 c-103 -21 -202 -99 -251 -198 -25 -50 -28 -68 -28 -152 0
-82 4 -103 26 -151 68 -145 228 -227 387 -199 124 21 216 92 269 205 24 51 28
73 27 145 0 71 -5 95 -28 147 -69 152 -235 236 -402 203z"/>
<path d="M6090 5555 l0 -425 345 0 345 0 0 425 0 425 -345 0 -345 0 0 -425z"/>
<path d="M7030 5555 l0 -425 345 0 345 0 0 425 0 425 -345 0 -345 0 0 -425z"/>
<path d="M6090 4530 l0 -430 345 0 345 0 0 430 0 430 -345 0 -345 0 0 -430z"/>
<path d="M7030 4530 l0 -430 345 0 345 0 0 430 0 430 -345 0 -345 0 0 -430z"/>
<path d="M6330 3033 c-832 -30 -1528 -98 -2255 -219 -1514 -252 -2832 -712
-3730 -1301 -166 -110 -351 -246 -338 -250 5 -2 70 18 144 45 2310 843 5407
1213 8414 1006 1827 -125 3576 -465 4998 -971 131 -47 241 -82 244 -80 7 8
-197 158 -337 249 -377 246 -888 500 -1379 685 -1276 483 -2819 767 -4521 833
-224 9 -1035 11 -1240 3z"/>
<path d="M3369 1147 c-116 -33 -170 -126 -139 -239 14 -51 62 -89 161 -128 98
-39 109 -46 109 -72 0 -28 -52 -21 -65 10 -9 21 -16 22 -112 22 -100 0 -103
-1 -103 -22 1 -40 37 -104 73 -133 96 -72 266 -74 352 -2 45 37 65 81 65 142
0 87 -40 130 -173 185 -81 33 -111 54 -104 74 2 6 15 11 28 11 17 0 25 -6 27
-22 3 -22 7 -23 109 -23 l106 0 -5 45 c-11 92 -91 152 -215 160 -39 3 -87 0
-114 -8z"/>
<path d="M7049 1147 c-116 -33 -170 -126 -139 -239 14 -51 62 -89 161 -128 98
-39 109 -46 109 -72 0 -28 -52 -21 -65 10 -9 21 -16 22 -112 22 -100 0 -103
-1 -103 -22 1 -40 37 -104 73 -133 96 -72 266 -74 352 -2 45 37 65 81 65 142
0 87 -40 130 -173 185 -81 33 -111 54 -104 74 2 6 15 11 28 11 17 0 25 -6 27
-22 3 -22 7 -23 109 -23 l106 0 -5 45 c-11 92 -91 152 -215 160 -39 3 -87 0
-114 -8z"/>
<path d="M8320 1147 c-91 -26 -163 -88 -202 -172 -32 -70 -32 -190 0 -260 29
-63 83 -119 147 -153 43 -22 63 -26 140 -26 104 -1 162 21 225 84 63 63 85
121 85 225 0 103 -20 157 -83 221 -72 74 -210 110 -312 81z m167 -209 c25 -26
28 -37 28 -93 0 -59 -3 -67 -31 -96 -81 -81 -207 -5 -191 115 14 103 125 146
194 74z"/>
<path d="M540 845 l0 -305 100 0 100 0 1 123 1 122 39 -123 40 -123 86 3 87 3
40 135 41 135 3 -138 3 -137 94 0 95 0 0 305 0 305 -118 0 -118 0 -58 -163
c-31 -90 -60 -168 -64 -174 -4 -6 -36 67 -71 163 l-64 174 -118 0 -119 0 0
-305z"/>
<path d="M1360 932 c0 -216 0 -219 26 -271 46 -92 143 -139 264 -128 107 9
183 59 224 147 19 40 21 67 24 258 l4 212 -101 0 -101 0 0 -193 c0 -181 -1
-195 -20 -215 -13 -14 -33 -22 -53 -22 -70 0 -77 22 -77 244 l0 186 -95 0 -95
0 0 -218z"/>
<path d="M1980 845 l0 -305 190 0 190 0 0 75 0 75 -90 0 -90 0 0 230 0 230
-100 0 -100 0 0 -305z"/>
<path d="M2380 1070 l0 -80 80 0 80 0 0 -225 0 -225 100 0 100 0 0 225 0 225
80 0 80 0 0 80 0 80 -260 0 -260 0 0 -80z"/>
<path d="M2960 845 l0 -305 100 0 100 0 0 305 0 305 -100 0 -100 0 0 -305z"/>
<path d="M3780 845 l0 -305 205 0 205 0 0 75 0 75 -105 0 -105 0 0 40 0 40 90
0 90 0 0 75 0 75 -90 0 -90 0 0 35 0 35 105 0 105 0 0 80 0 80 -205 0 -205 0
0 -305z"/>
<path d="M4260 846 l0 -306 100 0 99 0 3 90 3 91 48 -91 48 -90 110 0 110 0
-25 43 c-13 23 -43 73 -65 112 l-40 69 39 23 c127 76 114 263 -24 336 -37 19
-59 22 -223 25 l-183 4 0 -306z"/>
<path d="M4800 1138 c0 -7 45 -143 99 -303 l99 -290 127 0 127 0 99 289 c55
158 99 294 99 302 0 11 -22 14 -102 14 l-103 0 -44 -153 c-25 -83 -52 -174
-61 -201 l-16 -48 -59 201 -60 201 -102 0 c-76 0 -103 -3 -103 -12z"/>
<path d="M5500 845 l0 -305 100 0 100 0 0 305 0 305 -100 0 -100 0 0 -305z"/>
<path d="M5954 1134 c-61 -22 -119 -77 -151 -142 -24 -50 -28 -69 -28 -147 0
-82 3 -97 33 -157 48 -97 115 -142 232 -155 154 -16 295 77 325 215 l7 32
-104 0 c-94 0 -104 -2 -116 -21 -7 -11 -29 -27 -48 -35 -74 -31 -142 38 -131
134 12 104 106 147 171 77 22 -23 30 -25 126 -25 l102 0 -7 28 c-20 82 -69
144 -145 184 -57 29 -201 36 -266 12z"/>
<path d="M6440 845 l0 -305 205 0 205 0 0 75 0 75 -105 0 -105 0 0 40 0 40 90
0 90 0 0 75 0 75 -90 0 -90 0 0 35 0 35 105 0 105 0 0 80 0 80 -205 0 -205 0
0 -305z"/>
<path d="M7624 1134 c-61 -22 -119 -77 -151 -142 -24 -50 -28 -69 -28 -147 0
-82 3 -97 33 -157 48 -97 115 -142 232 -155 154 -16 295 77 325 215 l7 32
-104 0 c-94 0 -104 -2 -116 -21 -7 -11 -29 -27 -48 -35 -74 -31 -142 38 -131
134 12 104 106 147 171 77 22 -23 30 -25 126 -25 l102 0 -7 28 c-20 82 -69
144 -145 184 -57 29 -201 36 -266 12z"/>
<path d="M8790 932 c0 -216 0 -219 26 -271 46 -92 143 -139 264 -128 107 9
183 59 224 147 19 40 21 67 24 258 l4 212 -101 0 -101 0 0 -193 c0 -181 -1
-195 -20 -215 -13 -14 -33 -22 -53 -22 -70 0 -77 22 -77 244 l0 186 -95 0 -95
0 0 -218z"/>
<path d="M9370 1138 c0 -7 45 -143 99 -303 l99 -290 127 0 127 0 99 289 c55
158 99 294 99 302 0 11 -22 14 -102 14 l-103 0 -44 -153 c-25 -83 -52 -174
-61 -201 l-16 -48 -59 201 -60 201 -102 0 c-76 0 -103 -3 -103 -12z"/>
<path d="M10070 845 l0 -305 205 0 205 0 0 75 0 75 -105 0 -105 0 0 40 0 40
90 0 90 0 0 75 0 75 -90 0 -90 0 0 35 0 35 105 0 105 0 0 80 0 80 -205 0 -205
0 0 -305z"/>
<path d="M10550 846 l0 -306 100 0 99 0 3 90 3 91 48 -91 48 -90 110 0 110 0
-25 43 c-13 23 -43 73 -65 112 l-40 69 39 23 c127 76 114 263 -24 336 -37 19
-59 22 -223 25 l-183 4 0 -306z"/>
<path d="M11090 1070 l0 -80 80 0 80 0 0 -225 0 -225 100 0 100 0 0 225 0 225
80 0 80 0 0 80 0 80 -260 0 -260 0 0 -80z"/>
<path d="M11670 932 c0 -216 0 -219 26 -271 46 -92 143 -139 264 -128 107 9
183 59 224 147 19 40 21 67 24 258 l4 212 -101 0 -101 0 0 -193 c0 -181 -1
-195 -20 -215 -13 -14 -33 -22 -53 -22 -70 0 -77 22 -77 244 l0 186 -95 0 -95
0 0 -218z"/>
<path d="M12290 846 l0 -306 100 0 99 0 3 90 3 91 48 -91 48 -90 110 0 110 0
-25 43 c-13 23 -43 73 -65 112 l-40 69 39 23 c127 76 114 263 -24 336 -37 19
-59 22 -223 25 l-183 4 0 -306z"/>
<path d="M12870 845 l0 -305 205 0 205 0 0 75 0 75 -105 0 -105 0 0 40 0 40
90 0 90 0 0 75 0 75 -90 0 -90 0 0 35 0 35 105 0 105 0 0 80 0 80 -205 0 -205
0 0 -305z"/>
</g>
</svg>
