<?xml version="1.0" encoding="UTF-8"?>
<svg id="Calque_1" data-name="Calque 1" xmlns="http://www.w3.org/2000/svg" viewBox="0 0 136.87 136.82">
  <defs>
    <style>
      .cls-1 {
        fill: #fff;
        stroke-width: 0px;
      }
    </style>
  </defs>
  <path class="cls-1" d="M0,29.67c.81-.35,1.62-.99,2.43-.99,20.22-.06,40.44-.05,60.66-.04,4.24,0,6.96,2.69,6.98,6.9.02,5.88,0,11.76,0,17.63,0,.48,0,.97,0,1.59.56.03,1.02.07,1.49.07,4.19,0,8.37-.04,12.56.02,1.58.02,3.15.27,4.86.43,0-.74.08-1.7-.02-2.64-.17-1.7-1.71-2.73-3.38-2.27-1.45.4-2.86.97-4.33,1.3-2.77.62-5.26-.55-7.73-1.52-.44-.17-.79-1.28-.7-1.88.12-.87.94-1.28,1.85-1.08.86.19,1.71.47,2.55.78,1.8.65,3.53.55,5.34-.05,1.45-.48,3.01-.95,4.51-.89,2.79.11,4.91,2.4,5.21,5.2.07.62.07,1.24.07,1.87,0,8.37,0,16.74,0,25.11v1.84h1.73c11.49,0,22.98-.02,34.47.02,1.58,0,3.16.26,4.98.42-.06-1.11.01-2.44-.25-3.7-.3-1.42-1.89-2.27-3.34-1.99-.52.1-1.03.28-1.53.47-2.71,1-5.4.98-8.08-.11-4.29-1.74-8.59-1.8-12.85.06-3.72,1.62-7.25.66-10.75-.67-.85-.32-1.11-1.15-.8-2.02.31-.88,1.02-1.25,1.91-1.05.95.21,1.89.52,2.81.84,1.9.65,3.75.55,5.6-.22,5.01-2.09,10.05-2.1,15.08-.12,2.1.83,4.12.82,6.23.05,5.16-1.89,9.28,1.01,9.28,6.5,0,18.26,0,36.51.02,54.77,0,1.05-.17,1.93-1.08,2.54H0c0-35.72,0-71.44,0-107.16ZM88.91,133.39v-22.76h-1.68c-20.8,0-41.6,0-62.4,0-2.11,0-2.6-.49-2.6-2.58,0-7.35,0-14.69,0-22.04,0-.48,0-.95,0-1.49H3.43v22.66c.42.03.77.08,1.11.08,3.65,0,7.3-.01,10.96.02,1.28.01,1.98.66,1.98,1.68,0,1.02-.73,1.65-1.99,1.67-1.2.03-2.4,0-3.61,0-2.8,0-5.59,0-8.42,0v22.73h41.04c0-2.86,0-5.62,0-8.37,0-2.49,0-4.99.02-7.48.01-1.03.54-1.75,1.61-1.76,1.12-.02,1.67.69,1.71,1.8.01.31,0,.62,0,.94,0,4.5,0,8.99,0,13.49,0,.47,0,.94,0,1.42h41.07ZM89.01,81.04c0-6.36,0-12.5,0-18.64,0-3.14-1.03-4.19-4.13-4.19-11.85,0-23.69,0-35.54,0h-1.42v22.83c.55,0,1.03,0,1.51,0,5.97,0,11.94,0,17.9,0,2.35,0,2.74.38,2.74,2.68,0,7.3,0,14.6,0,21.91v1.53h41.09v-22.73h-1.64c-10.55,0-21.11,0-31.66,0-1.94,0-2.78-.52-2.76-1.72.02-1.18.83-1.66,2.82-1.66,3.64,0,7.29,0,11.09,0ZM133.39,133.38v-22.67h-40.95v22.67h40.95ZM25.71,32v22.71h41.07v-1.44c0-5.7,0-11.4,0-17.09,0-3.11-1.06-4.18-4.16-4.18-11.84,0-23.69,0-35.53,0h-1.38ZM3.44,58.29v22.66h40.98v-22.66H3.44ZM25.69,84.49v22.66h41v-22.66H25.69ZM3.41,54.74h18.75v-22.64H3.41v22.64ZM114.7,84.44v22.71h18.81c0-.62,0-1.14,0-1.66,0-5.25,0-10.5,0-15.74,0-.89.02-1.78-.09-2.66-.18-1.45-1.31-2.61-2.76-2.62-5.28-.05-10.57-.02-15.96-.02Z"/>
  <path class="cls-1" d="M112.88,0c5.65,0,11.31,0,16.96,0,4.29,0,6.99,2.72,7,7.02.01,5.21.01,10.42,0,15.62-.01,4.07-2.64,6.88-6.71,6.9-11.49.06-22.98.07-34.46,0-4.06-.02-6.66-2.86-6.66-6.95,0-5.21-.01-10.42,0-15.62,0-4.27,2.73-6.96,7.04-6.97,5.61,0,11.22,0,16.83,0ZM112.86,26.2c5.61,0,11.22,0,16.83,0,2.61,0,3.8-1.13,3.81-3.7.03-5.16.03-10.33,0-15.49-.01-2.47-1.17-3.63-3.6-3.64-11.31-.02-22.62-.02-33.93,0-2.44,0-3.6,1.17-3.61,3.63-.03,5.16-.03,10.33,0,15.49.01,2.58,1.2,3.71,3.8,3.71,5.57,0,11.13,0,16.7,0Z"/>
  <path class="cls-1" d="M8.63,122.29c-.97-.13-1.55-.67-1.62-1.64-.06-.88.82-1.72,1.7-1.69.9.03,1.72.89,1.61,1.77-.12.97-.72,1.48-1.69,1.56Z"/>
  <path class="cls-1" d="M8.49,129.13c-.86-.06-1.41-.63-1.49-1.59-.08-.91.75-1.71,1.68-1.68,1.01.04,1.54.64,1.63,1.6.08.93-.72,1.68-1.82,1.67Z"/>
  <path class="cls-1" d="M15.32,125.86c1.1.02,1.87.8,1.77,1.73-.1.97-.67,1.52-1.67,1.53-.96.01-1.68-.75-1.6-1.72.08-1,.68-1.48,1.5-1.55Z"/>
  <path class="cls-1" d="M101.06,126.76c0,1.12-.76,1.87-1.71,1.79-.99-.08-1.53-.64-1.55-1.64-.02-.96.73-1.68,1.7-1.62,1,.07,1.49.66,1.56,1.46Z"/>
  <path class="cls-1" d="M59.85,43.04c1.03-.04,1.88.74,1.83,1.65-.05.97-.59,1.56-1.59,1.63-.95.06-1.77-.7-1.72-1.63.05-.97.62-1.52,1.47-1.65Z"/>
  <path class="cls-1" d="M58.37,37.83c.1-.97.63-1.56,1.59-1.67.87-.09,1.74.76,1.75,1.65,0,.88-.85,1.74-1.73,1.67-.98-.08-1.5-.68-1.61-1.65Z"/>
  <path class="cls-1" d="M8.28,75.08c.09-.83.63-1.39,1.61-1.45.95-.06,1.69.72,1.65,1.68-.04,1.01-.64,1.54-1.6,1.61-.92.07-1.69-.75-1.66-1.84Z"/>
  <path class="cls-1" d="M11.54,68.2c.03,1.12-.69,1.87-1.65,1.83-.99-.04-1.55-.59-1.61-1.58-.06-.95.69-1.7,1.65-1.67,1,.03,1.51.6,1.61,1.42Z"/>
  <path class="cls-1" d="M59.34,96.56c.01-.92.84-1.74,1.74-1.63.96.11,1.55.68,1.54,1.68,0,1.01-.62,1.55-1.58,1.63-.9.08-1.71-.76-1.7-1.68Z"/>
  <path class="cls-1" d="M55.86,89.64c.04.92-.73,1.77-1.64,1.72-.97-.05-1.56-.58-1.63-1.58-.06-.97.66-1.72,1.62-1.72.88,0,1.62.71,1.65,1.58Z"/>
  <path class="cls-1" d="M59.34,89.72c-.01-.92.78-1.74,1.7-1.66.97.08,1.57.62,1.58,1.63,0,.99-.58,1.57-1.54,1.67-.9.1-1.72-.72-1.73-1.64Z"/>
  <path class="cls-1" d="M129.31,89.65c-.03.99-.89,1.81-1.77,1.7-.97-.11-1.52-.73-1.56-1.69-.04-.9.86-1.7,1.76-1.61.99.1,1.47.72,1.57,1.59Z"/>
  <path class="cls-1" d="M121.5,10.31c-1.01-.1-1.58-.65-1.66-1.62-.07-.89.79-1.73,1.68-1.71.9.02,1.74.88,1.64,1.76-.11.97-.71,1.49-1.66,1.57Z"/>
  <path class="cls-1" d="M129.92,8.83c-.08.83-.63,1.39-1.61,1.46-.94.06-1.69-.72-1.65-1.68.04-1.01.63-1.54,1.59-1.61.92-.07,1.68.75,1.66,1.84Z"/>
  <path class="cls-1" d="M128.17,17.15c-.82-.05-1.43-.52-1.51-1.52-.08-.96.63-1.72,1.58-1.74.95-.02,1.69.71,1.68,1.66-.01.9-.69,1.58-1.74,1.61Z"/>
</svg>