<?xml version="1.0" encoding="UTF-8"?>
<svg id="Calque_1" data-name="Calque 1" xmlns="http://www.w3.org/2000/svg" viewBox="0 0 145 174">
  <defs>
    <style>
      .cls-1 {
        fill: #fff;
        stroke-width: 0px;
      }
    </style>
  </defs>
  <path class="cls-1" d="M0,87.03C0,59.48,0,31.93,0,4.39,0,.77.76,0,4.31,0,46,0,87.68,0,129.36,0c9.57,0,15.64,6.05,15.64,15.59,0,51.41,0,102.82,0,154.23,0,3.33-.84,4.18-4.16,4.18-45.55,0-91.1,0-136.65,0-3.34,0-4.19-.84-4.19-4.15C0,142.24,0,114.63,0,87.03ZM5.88,168.07h133.17V29c-4.68,0-9.21.01-13.74,0-2.47-.01-3.5-1.05-3.51-3.55-.02-4.23,0-8.46,0-12.69,0-4.8-2.16-6.96-6.97-6.96-35.64,0-71.28,0-106.93,0h-2.02v162.27ZM127.75,23.11h11.45c0-2.73,0-5.36,0-8,0-.6,0-1.21-.08-1.8-.53-3.6-3.08-6.51-6.68-7.21-1.98-.38-4.06-.28-6.31-.41,2.62,5.75.91,11.63,1.62,17.42Z"/>
  <path class="cls-1" d="M40.62,69.6c-16.06-.03-29.07-13.07-29.02-29.06.06-16.12,13.12-29.01,29.33-28.93,15.84.08,28.73,13.22,28.66,29.24-.06,15.79-13.17,28.79-28.97,28.76ZM17.4,40.53c-.04,12.77,10.31,23.2,23.08,23.27,12.73.07,23.28-10.35,23.32-23.04.04-12.82-10.29-23.31-23-23.35-12.91-.04-23.36,10.28-23.4,23.12Z"/>
  <path class="cls-1" d="M72.43,87c-7.55,0-15.1.06-22.65-.07-1.02-.02-2.31-.76-2.93-1.58-.45-.6-.34-2.13.14-2.78.54-.73,1.79-1.31,2.73-1.31,15.16-.08,30.33-.06,45.49-.05,2.1,0,3.41,1.19,3.37,2.95-.04,1.74-1.34,2.83-3.5,2.83-7.55.01-15.1,0-22.65,0Z"/>
  <path class="cls-1" d="M72.5,98.6c-7.43,0-14.86.02-22.29-.03-.87,0-2.04-.08-2.52-.61-.67-.75-1.32-2.13-1.06-2.94.29-.91,1.53-1.91,2.51-2.11,1.68-.35,3.48-.11,5.24-.11,13.23,0,26.46,0,39.69,0,.48,0,.97-.02,1.45,0,1.85.09,3.07,1.24,3.07,2.89,0,1.64-1.22,2.86-3.07,2.89-3.74.05-7.49.02-11.24.02-3.93,0-7.85,0-11.78,0Z"/>
  <path class="cls-1" d="M72.38,110.2c-7.43,0-14.86.03-22.29-.04-.95,0-2.16-.29-2.77-.92-.59-.61-.95-1.97-.67-2.73.31-.85,1.4-1.48,2.26-2.03.39-.25,1.06-.08,1.6-.08,14.68,0,29.36,0,44.04,0,.36,0,.73-.02,1.09,0,1.73.12,2.91,1.26,2.95,2.83.04,1.64-1.18,2.91-3.01,2.94-2.9.06-5.8.02-8.7.02-4.83,0-9.67,0-14.5,0Z"/>
  <path class="cls-1" d="M72.5,116c7.55,0,15.1,0,22.65,0,1.99,0,3.2.94,3.41,2.53.23,1.74-1.09,3.2-3.05,3.25-2.17.06-4.35.02-6.52.02-12.93,0-25.86.01-38.78-.03-.91,0-2.15-.15-2.66-.73-.64-.74-1.03-2.04-.9-3.02.18-1.38,1.42-2.01,2.84-2.02,4.77,0,9.54,0,14.32,0,2.9,0,5.8,0,8.7,0Z"/>
  <path class="cls-1" d="M72.43,133.4c-7.25,0-14.5,0-21.75,0-.54,0-1.09.03-1.63-.03-1.57-.19-2.72-1.44-2.62-2.94.1-1.6,1.02-2.53,2.58-2.79.47-.08.96-.03,1.45-.03,14.68,0,29.36,0,44.04,0,.36,0,.73-.01,1.09,0,1.83.11,3.04,1.32,3,2.96-.04,1.57-1.22,2.74-2.96,2.81-1.51.06-3.02.02-4.53.02-6.22,0-12.44,0-18.67,0Z"/>
  <path class="cls-1" d="M101.5,156.6c7.55,0,15.1,0,22.65,0,1.99,0,3.2.94,3.41,2.53.23,1.74-1.09,3.2-3.05,3.25-2.17.06-4.35.02-6.52.02-12.93,0-25.86.01-38.78-.03-.91,0-2.15-.14-2.66-.73-.64-.74-1.03-2.04-.91-3.02.18-1.38,1.42-2.01,2.84-2.02,4.77,0,9.54,0,14.32,0,2.9,0,5.8,0,8.7,0Z"/>
  <path class="cls-1" d="M102.91,58c-7.07,0-14.14.01-21.2,0-2.37,0-3.89-1.7-3.28-3.64.47-1.53,1.61-2.15,3.18-2.15,14.26,0,28.51,0,42.77.02,1.97,0,3.24,1.22,3.21,2.93-.02,1.7-1.28,2.85-3.29,2.85-7.13.02-14.26,0-21.39,0Z"/>
  <path class="cls-1" d="M103.13,63.8c7.01,0,14.02,0,21.02,0,2.06,0,3.32,1.03,3.43,2.71.11,1.75-1.21,3.05-3.25,3.07-3.08.04-6.16.01-9.24.01-10.99,0-21.99.02-32.98-.03-.91,0-2.15-.15-2.66-.73-.64-.74-1.05-2.05-.9-3.02.22-1.47,1.53-2.03,3.02-2.03,5.13.01,10.27,0,15.4,0,2.05,0,4.11,0,6.16,0Z"/>
  <path class="cls-1" d="M110.02,46.4c-4.53,0-9.06,0-13.59,0-2.29,0-3.61-1.09-3.61-2.9,0-1.81,1.32-2.89,3.61-2.9,9.18,0,18.36,0,27.55,0,2.29,0,3.61,1.09,3.61,2.89,0,1.8-1.33,2.89-3.61,2.9-4.65.01-9.3,0-13.95,0Z"/>
  <path class="cls-1" d="M113.21,145c3.62,0,7.25-.01,10.87,0,2.16.01,3.46,1.08,3.5,2.82.05,1.81-1.29,2.96-3.54,2.97-7.31.01-14.62.01-21.93,0-2.17,0-3.46-1.07-3.5-2.83-.05-1.82,1.29-2.95,3.54-2.96,3.68-.02,7.37,0,11.05,0Z"/>
  <path class="cls-1" d="M26.13,81.2c1.81,0,3.62-.03,5.44,0,1.97.04,3.24,1.22,3.21,2.92-.02,1.71-1.28,2.84-3.29,2.86-3.62.03-7.25.03-10.87,0-1.97-.02-3.23-1.22-3.21-2.93.02-1.7,1.28-2.82,3.28-2.85,1.81-.03,3.62,0,5.44,0Z"/>
  <path class="cls-1" d="M25.93,98.6c-1.81,0-3.63.04-5.44-.01-1.86-.05-3.07-1.22-3.08-2.87-.01-1.65,1.2-2.87,3.05-2.9,3.74-.05,7.49-.05,11.23,0,1.86.02,3.08,1.22,3.09,2.86.01,1.64-1.21,2.85-3.05,2.9-1.93.05-3.87.01-5.8.01Z"/>
  <path class="cls-1" d="M25.98,110.2c-1.81,0-3.62.03-5.44-.01-1.87-.05-3.09-1.19-3.13-2.82-.04-1.71,1.22-2.93,3.18-2.95,3.68-.04,7.37-.04,11.05,0,1.87.02,3.1,1.18,3.14,2.82.04,1.7-1.23,2.91-3.18,2.96-1.87.04-3.74,0-5.62,0Z"/>
  <path class="cls-1" d="M25.96,121.8c-1.75,0-3.5.02-5.25,0-2-.04-3.26-1.15-3.29-2.85-.03-1.71,1.23-2.91,3.21-2.93,3.62-.04,7.25-.03,10.87,0,2.01.02,3.27,1.14,3.29,2.85.03,1.76-1.28,2.91-3.39,2.94-1.81.02-3.62,0-5.44,0Z"/>
  <path class="cls-1" d="M25.92,133.4c-1.81,0-3.63.04-5.44-.01-1.85-.05-3.07-1.24-3.07-2.88,0-1.65,1.21-2.86,3.06-2.88,3.74-.05,7.49-.05,11.23,0,1.85.02,3.07,1.23,3.07,2.88,0,1.64-1.22,2.84-3.07,2.89-1.93.05-3.87.01-5.8.01Z"/>
  <path class="cls-1" d="M121.87,81.22c1.03,0,2.06-.08,3.08.02,1.58.15,2.72,1.43,2.63,2.93-.1,1.6-1.01,2.66-2.58,2.77-2.1.15-4.23.12-6.34.01-1.58-.08-2.67-1.42-2.64-2.92.04-1.51,1.15-2.69,2.77-2.8,1.02-.07,2.05-.01,3.08-.01,0,0,0,0,0,0Z"/>
  <path class="cls-1" d="M121.73,98.59c-.97,0-1.94.06-2.9-.01-1.7-.12-2.86-1.37-2.82-2.95.04-1.51,1.15-2.73,2.77-2.79,1.99-.09,3.99-.08,5.98,0,1.7.07,2.86,1.36,2.82,2.94-.04,1.5-1.16,2.65-2.78,2.82-.12.01-.24.01-.36.01-.91,0-1.81,0-2.72,0h0Z"/>
  <path class="cls-1" d="M121.74,110.19c-.97,0-1.94.06-2.9-.01-1.71-.12-2.86-1.35-2.83-2.93.03-1.51,1.14-2.74,2.76-2.81,1.99-.09,3.99-.09,5.98,0,1.71.07,2.86,1.35,2.83,2.92-.03,1.5-1.15,2.7-2.76,2.82-1.02.08-2.05.01-3.08.02Z"/>
  <path class="cls-1" d="M121.65,121.79c-.91,0-1.81.05-2.72,0-1.73-.1-2.9-1.27-2.92-2.85-.02-1.58,1.13-2.84,2.85-2.91,1.93-.08,3.87-.07,5.8,0,1.73.06,2.9,1.26,2.92,2.84.02,1.58-1.14,2.81-2.85,2.92-1.02.07-2.05.01-3.08.01Z"/>
  <path class="cls-1" d="M121.79,133.38c-1.03,0-2.06.07-3.08-.02-1.6-.14-2.7-1.36-2.7-2.87,0-1.51,1.1-2.78,2.71-2.85,2.05-.1,4.11-.1,6.16,0,1.6.08,2.71,1.35,2.7,2.86,0,1.51-1.11,2.73-2.71,2.86-1.02.08-2.05.02-3.08.02Z"/>
  <path class="cls-1" d="M49.28,34.21c.02,2.01-1.02,3.29-2.57,3.47-1.6.18-2.88-.91-3.2-2.74-.4-2.26-1.89-3.47-3.67-2.9-1.43.45-2.19,1.48-2.11,3,.08,1.55,1.24,2.52,3.09,2.68,4.02.34,7.04,2.64,8.09,6.17,1.18,3.93-.49,8-4.03,10.13-.61.37-1.14,1.08-1.43,1.75-.54,1.3-1.34,2.18-2.78,2.21-1.52.03-2.39-.85-2.94-2.24-.25-.63-.72-1.32-1.28-1.66-2.6-1.59-4.15-3.82-4.51-6.83-.25-2.05.81-3.52,2.55-3.71,1.66-.18,2.9.91,3.18,2.94.2,1.42.88,2.58,2.25,2.67.98.06,2.39-.42,2.91-1.16.51-.73.45-2.22.06-3.11-.3-.67-1.49-1.21-2.35-1.31-4.62-.56-7.6-2.97-8.48-7.09-.8-3.74.99-7.29,4.72-9.51.42-.25.77-.82.92-1.31.43-1.43,1.28-2.36,2.8-2.4,1.61-.04,2.49.91,2.99,2.4.2.58.7,1.18,1.23,1.5,2.81,1.68,4.31,4.12,4.56,7.08Z"/>
</svg>