<?xml version="1.0" encoding="UTF-8"?>
<svg id="Calque_1" data-name="Calque 1" xmlns="http://www.w3.org/2000/svg" viewBox="0 0 205.94 147.53">
  <defs>
    <style>
      .cls-1 {
        fill: #c63;
        stroke-width: 0px;
      }
    </style>
  </defs>
  <path class="cls-1" d="M190.23,132.89c3.9,0,7.62-.07,11.33.02,3.18.08,5.11,2.68,4.11,5.43-.74,2.04-2.4,2.72-4.43,2.72-3.64.01-7.27,0-10.78,0-.21.33-.34.44-.35.56-.41,5.13-1.25,5.89-6.5,5.89-9.53,0-19.07,0-28.6,0-5.75,0-6.33-.5-7.03-6.45-.82,0-1.68,0-2.55,0-12.96.03-25.92.25-38.87.07-35.97-.49-62.13-26.84-66.05-58.25-.51-4.12-.39-8.32-.55-12.49-.03-.88,0-1.75,0-2.27-3.37-.9-6.62-1.3-9.45-2.6-8.46-3.9-12.89-10.76-13.29-20.06-.2-4.6-.03-9.22-.03-14.16-2.7,0-5.28,0-7.85,0C3.39,31.29.07,28,.03,22.06,0,17.67-.02,13.27.03,8.88.1,3.37,3.52,0,9.04,0,53.13,0,97.22,0,141.31,0c5.62,0,9.05,3.42,9.08,9.03.03,4.54.04,9.09,0,13.63-.05,5.06-3.53,8.55-8.57,8.63-2.74.04-5.49,0-8.56,0,0,2.28.06,4.41-.01,6.54-.12,3.94.15,7.97-.58,11.8-1.93,10.2-10.52,17.32-20.91,17.89-.29.02-.59.06-1.08.11v10.93h37.54c0-.77-.04-1.44,0-2.09.21-2.74,1.67-4.16,4.5-4.18,5.96-.06,11.92-.02,17.88-.02,4.62,0,9.24,0,13.85,0,4.25,0,5.38,1.11,5.6,5.37.01.28.08.57.15,1.07,3.74,0,7.45,0,11.16,0,2.08,0,3.66.81,4.35,2.82.9,2.63-.89,5.15-3.79,5.26-3.05.11-6.11.04-9.16.05-.8,0-1.6,0-2.52,0v46.05ZM124.75,31.31c-.83,0-1.71,0-2.58,0-17.2,0-34.4,0-51.6,0-.82,0-1.65.05-2.45-.08-2.02-.32-3.45-2.11-3.39-4.11.07-2.03,1.57-3.65,3.63-3.87.74-.08,1.49-.04,2.23-.04,23.01,0,46.02,0,69.03,0,.86,0,1.71,0,2.49,0v-14.98H8.3v14.98c.93,0,1.73,0,2.53,0,9.83,0,19.66-.01,29.49,0,2.86,0,4.59,1.57,4.58,4.04,0,2.45-1.75,4.02-4.6,4.04-4.24.03-8.49,0-12.73.02-.71,0-1.41.08-2.18.13,0,5.07-.28,9.92.07,14.73.55,7.53,6.45,13.2,13.78,13.23,23.98.1,47.95.09,71.93,0,6.58-.02,12.64-4.78,13.45-11.22.69-5.47.14-11.09.14-16.88ZM48.32,67.77c-3.47,37.85,25.54,63.39,53.76,64.82v-64.82h-53.76ZM148,132.78v-45.79h-37.28v45.79h37.28ZM181.69,139.34v-58.73h-25.14v58.73h25.14Z"/>
</svg>