<?xml version="1.0" encoding="UTF-8"?>
<svg id="Calque_1" data-name="Calque 1" xmlns="http://www.w3.org/2000/svg" viewBox="0 0 139 177.08">
  <defs>
    <style>
      .cls-1 {
        fill: #c63;
        stroke-width: 0px;
      }
    </style>
  </defs>
  <path class="cls-1" d="M60.22,177.08c-3.34-.56-6.74-.87-10.01-1.72-25.49-6.63-41.93-22.7-48.29-48.22-4.66-18.7-.67-36.11,10.21-52.08C28.51,51.04,44.66,26.86,60.95,2.76,61.66,1.71,62.76.91,63.68,0c.69,0,1.38,0,2.08,0,.91,1,1.96,1.91,2.71,3.02,8.88,13.11,17.72,26.25,26.57,39.39.31.46.65.91,1.08,1.52,2.59-3.83,5.1-7.54,7.6-11.25.48-.72.95-1.45,1.45-2.15,1.77-2.48,4.45-2.43,6.21.17,3.47,5.09,6.89,10.22,10.33,15.33,3.99,5.92,7.98,11.85,11.96,17.77,8.26,12.27,6.78,28.38-3.65,38.83-1.1,1.1-1.42,2.12-1.31,3.61,1.86,24.92-7.4,44.77-27.58,59.4-9.13,6.62-19.53,10.19-30.79,11.16-.39.03-.76.19-1.14.29h-8.99ZM64.64,9.71c-.51.74-.88,1.25-1.24,1.77-15.2,22.54-30.31,45.14-45.61,67.6-9.03,13.26-12.48,27.66-9.82,43.47,5.36,31.78,37.04,53.23,68.43,46.37,23.36-5.11,40.61-22.97,44.94-46.59.82-4.47,1.03-8.99.67-13.69-.73.29-1.31.51-1.88.75-12.66,5.29-27.04,1.69-35.77-8.96-8.58-10.48-9.22-25.37-1.57-36.69,2.71-4.01,5.37-8.05,8.14-12.01.78-1.11.82-1.87.03-3.02-6.01-8.8-11.94-17.65-17.9-26.48-2.76-4.1-5.52-8.2-8.42-12.51ZM108.27,38.49c-.28.32-.4.44-.5.58-6.57,9.74-13.19,19.45-19.69,29.24-3.08,4.63-4.17,9.85-3.56,15.35,1.09,9.89,8.28,18.07,17.8,20.46,9.68,2.43,19.7-1.29,25.42-9.45,5.71-8.15,5.76-18.77.13-27.1-2.87-4.25-5.73-8.5-8.59-12.75-3.63-5.39-7.27-10.77-11.01-16.32Z"/>
</svg>