<?xml version="1.0" encoding="UTF-8"?>
<svg id="Calque_1" data-name="Calque 1" xmlns="http://www.w3.org/2000/svg" viewBox="0 0 190.7 192.92">
  <defs>
    <style>
      .cls-1 {
        fill: #fff;
        stroke-width: 0px;
      }
    </style>
  </defs>
  <path class="cls-1" d="M57.96,63.65c-3.57,0-7.09,0-10.61,0-.85,0-1.71.03-2.55-.05-1.84-.17-2.8-1.19-2.89-3.06-.05-.91-.01-1.83-.02-2.75,0-.84,0-1.69,0-2.85-.88,0-1.64,0-2.4,0-11.7,0-23.4,0-35.1,0-3.45,0-4.32-.86-4.33-4.25C.04,45.06.02,39.44,0,33.82c0-1.69.76-2.77,2.38-3.41,19.37-7.67,38.72-15.38,58.08-23.06,1.3-.52,2.25-1.08,2.81-2.61C64.38,1.71,66.89.1,70.1,0c3.2-.1,5.74,1.36,7.14,4.28.57,1.2,1.28,1.75,2.52,2.1,27.92,7.82,55.83,15.69,83.74,23.53.87.25,1.79.48,2.69.48,6.87.03,13.74.03,20.61-.03,2.55-.02,3.91,1.1,3.91,3.49-.02,5.62-.04,11.25-.06,16.87-.02,3.3-.91,4.21-4.18,4.22-5.5,0-10.99,0-16.49,0-.7,0-1.41,0-2.24,0-.04.84-.1,1.48-.1,2.11,0,16.02,0,32.05-.03,48.07,0,1.21.26,1.94,1.4,2.63,5.53,3.34,5.56,11.07.13,14.52-2.27,1.45-2.19,5.08.15,6.32,3.8,2.03,5.91,6.12,5.31,10.3-.59,4.14-3.81,7.53-7.99,8.42-3.98.85-8.3-1.04-10.48-4.57-1.19-1.92-1.02-3.68.44-4.7,1.54-1.08,3.23-.57,4.6,1.39,1.28,1.82,2.87,2.43,4.71,1.81,1.75-.59,2.93-2.3,2.78-4.05-.16-1.96-1.5-3.31-3.69-3.73-2.71-.52-3.28-1.19-3.31-3.9,0-.52-.03-1.05,0-1.57.16-2.74-.04-4.88-2.77-6.92-4.56-3.4-3.52-10.39,1.48-13.43.86-.52,1.31-.99,1.31-2.09-.04-16.35-.03-32.7-.03-49.05,0-.44-.07-.89-.11-1.45h-62.7c0,1.48,0,2.95,0,4.42-.02,3.16-.95,4.14-4.07,4.15-3.92.02-7.83,0-11.92,0v108.48c1.65.29,3.28.46,4.85.88,7.23,1.93,12.62,8.77,12.77,16.08.05,2.62-.99,3.81-3.56,3.82-17.73.02-35.46.02-53.19,0-2.56,0-3.61-1.26-3.48-3.89.45-8.65,6.9-15.52,15.52-16.54.71-.08,1.42-.18,2.21-.28V63.65ZM92.61,57.54v-29.67h-44.59v29.67h44.59ZM78.21,21.71c.8,0,1.51,0,2.21,0,4.9,0,9.8-.02,14.71.01,2.63.02,3.66,1.08,3.7,3.71.03,1.61,0,3.21,0,4.82h42.07c.02-.14.04-.27.07-.41-20.88-5.88-41.77-11.76-62.75-17.66v9.52ZM46.78,186.66h47.01c-1.02-4.56-5.37-8.16-10.15-8.21-8.89-.1-17.77-.1-26.66,0-4.73.05-8.81,3.44-10.2,8.21ZM41.9,30.33c0-1.78-.02-3.4,0-5.02.04-2.53,1.02-3.54,3.57-3.59,2.42-.04,4.84-.01,7.26-.01,3.19,0,6.38,0,9.69,0v-8.66c-14.34,5.7-28.48,11.33-42.62,16.95.03.11.06.22.09.32h22ZM64.13,166.74c4.06-5,7.82-9.65,11.62-14.33-3.82-4.72-7.58-9.35-11.62-14.34v28.68ZM75.75,106.51c-3.83-4.72-7.58-9.35-11.59-14.29v28.6c4.05-5,7.8-9.64,11.59-14.31ZM156.03,48.89c-4.82-3.91-9.24-7.52-13.73-11.04-.31-.24-1.33.06-1.79.41-3.18,2.49-6.3,5.06-9.44,7.61-1.12.91-2.24,1.83-3.7,3.02h28.66ZM164.64,48.07c4.72-3.83,9.35-7.58,14.29-11.58h-28.6c4.96,4.02,9.6,7.77,14.3,11.58ZM104.45,36.5c5.03,4.07,9.64,7.79,14.31,11.56,4.76-3.85,9.37-7.59,14.28-11.56h-28.59ZM76.44,97.77v-28.37c-3.98,4.91-7.7,9.5-11.5,14.18,3.8,4.68,7.51,9.27,11.5,14.19ZM76.48,115.2c-4.06,5.02-7.78,9.62-11.54,14.26,3.83,4.72,7.53,9.29,11.54,14.23v-28.49ZM36.77,36.58H11.25c4.41,3.92,8.55,7.6,12.76,11.35,4.25-3.78,8.39-7.46,12.76-11.35ZM72.07,21.5c0-4.65,0-9.08,0-13.51,0-1.14-.54-1.91-1.76-1.89-1.22.03-1.67.8-1.67,1.96,0,3.27-.02,6.53-.03,9.8,0,1.21,0,2.42,0,3.64h3.46ZM110.16,48.87c-3.93-3.17-7.47-6.02-11.18-9.01v9.01h11.18ZM64.15,74.97c3.12-3.85,5.94-7.33,8.97-11.07h-8.97v11.07ZM184.37,48.86v-8.99c-3.74,3.03-7.24,5.87-11.09,8.99h11.09ZM76.48,161.11c-3.11,3.84-5.91,7.29-8.91,10.99h8.91v-10.99ZM41.72,40.26c-3.33,2.95-6.37,5.65-9.63,8.54h9.63v-8.54ZM6.31,40.25v8.61h9.67c-3.32-2.95-6.35-5.66-9.67-8.61ZM164.64,117.46c1.38,0,2.59-1.13,2.49-2.47-.11-1.49-.93-2.45-2.51-2.44-1.57,0-2.4.95-2.49,2.45-.08,1.35,1.12,2.46,2.5,2.46Z"/>
</svg>