<?xml version="1.0" encoding="UTF-8"?>
<svg id="Calque_1" data-name="Calque 1" xmlns="http://www.w3.org/2000/svg" viewBox="0 0 193.32 185.22">
  <defs>
    <style>
      .cls-1 {
        fill: #fff;
        stroke-width: 0px;
      }
    </style>
  </defs>
  <path class="cls-1" d="M0,161.73c.3-1.21.55-2.44.9-3.64,1.05-3.58,3-6.6,5.63-9.23,26.22-26.19,52.39-52.43,78.65-78.57,3.78-3.76,7.28-7.6,9.47-12.54,3.7-8.31,2.22-19.16-3.65-25.03-4.36-4.36-9.96-6.31-15.86-7.25-4.33-.69-8.75-.84-13.12-1.22-.56-.05-1.13-.02-1.7-.08-1.69-.18-3.02-.96-3.64-2.59-.64-1.7-.14-3.19,1.08-4.5C68.45,5.57,81.49-.25,97.33,0c14.12.23,26.12,5.13,36.1,15.03,11.35,11.25,22.63,22.57,33.95,33.85,1.23,1.23,1.87,2.64,1.79,4.39-.05.94,0,1.88,0,2.91.34.07.65.22.92.18,3.54-.54,6.05,1.03,8.41,3.55,4.12,4.41,8.5,8.58,12.77,12.85,2.67,2.68,2.75,4.47.26,7.32-8.89,10.19-17.8,20.37-26.71,30.54-2.4,2.74-4.65,2.84-7.24.26-6.25-6.21-12.45-12.47-18.7-18.67-1.34-1.33-2-2.83-1.9-4.72.07-1.43.01-2.86.01-4.7-1.81.42-3.35.64-4.79,1.15-7.47,2.67-14.09,6.88-20.46,11.53-.65.47-1.16,1.15-1.71,1.75-24.42,26.86-48.84,53.71-73.27,80.57-10.05,11.05-26.99,9.49-34.02-3.24C1.44,172.27.89,169.55,0,167.02c0-1.76,0-3.52,0-5.29ZM95.09,72.6c4.61,4.61,9.51,9.52,14.47,14.48.79-.54,1.76-1.23,2.76-1.88,5.91-3.84,11.98-7.38,18.85-9.29,3.02-.84,6.05-1.2,9.1-.28,3.4,1.02,4.71,2.84,4.72,6.34,0,1.07.07,2.14-.02,3.21-.1,1.22.3,2.1,1.19,2.97,4.54,4.45,9,8.96,13.5,13.45.39.39.82.74,1.31,1.18,7.63-8.73,15.19-17.37,22.83-26.1-2.94-2.92-5.9-5.49-8.41-8.45-2.53-2.97-5.36-4.53-9.28-3.82-.3.06-.63,0-.94-.02-2.48-.19-3.89-1.59-4.01-4.11-.08-1.57.09-3.16-.07-4.71-.09-.85-.4-1.88-.97-2.46-10.68-10.76-21.5-21.37-32.12-32.19-14.08-14.35-34.54-15.54-49.39-9.38-2.82,1.17-5.37,2.97-8.05,4.49.09.19.18.37.27.56,1.96.31,3.94.57,5.89.94,7.39,1.43,14.28,3.93,19.88,9.24,8.75,8.3,10.22,23.48,5.51,33.89-1.92,4.24-4.71,8.08-7.01,11.95ZM88.5,78.34c-.3.28-.58.54-.84.8-25.1,25.1-50.19,50.19-75.29,75.29-.49.49-.95,1.01-1.39,1.54-3.73,4.58-3.85,11.41-.28,16.1,5.12,6.71,14.08,6.88,20.1.28,23.77-26.1,47.5-52.23,71.25-78.35.36-.4.68-.83.94-1.13-4.87-4.88-9.62-9.64-14.49-14.53Z"/>
</svg>