<?xml version="1.0" encoding="UTF-8"?>
<svg id="Calque_1" data-name="Calque 1" xmlns="http://www.w3.org/2000/svg" viewBox="0 0 151 173.64">
  <defs>
    <style>
      .cls-1 {
        fill: #c63;
        stroke-width: 0px;
      }
    </style>
  </defs>
  <path class="cls-1" d="M17.08,31.19v-9.91c-4.27-1.09-5.25-2.36-5.25-6.81,0-1.25-.04-2.5.05-3.74.18-2.65,2.05-4.65,4.68-4.67,10.54-.07,21.08-.07,31.62,0,2.62.02,4.51,1.91,4.75,4.62.16,1.85.16,3.75.01,5.6-.22,2.79-1.67,4.09-5.24,5v7.93c.1.06.21.11.31.17.35-.53.7-1.07,1.04-1.6,4.72-7.34,9.5-14.63,14.12-22.03C65.66,1.77,69.01-.03,73.72,0c18.02.1,36.04.03,54.07.02,6.88,0,11,4.14,11.01,11.08,0,6.48.03,12.97-.02,19.45,0,1.12.24,1.71,1.36,2.23,6.69,3.1,10.37,8.36,10.77,15.76.12,2.3.12,4.62-.01,6.92-.32,5.4-3.82,9.79-9.03,11.07-1.56.39-1.75,1.08-1.75,2.42.03,26.56,0,53.12.04,79.68.02,9.69-3.97,17.06-12.32,21.99-3.57,2.11-7.51,2.98-11.64,2.98-27.13.01-54.25.06-81.38-.01-13.63-.04-23.98-10.55-23.99-24.16-.02-26.81-.02-53.62.02-80.43,0-1.43-.24-2.1-1.84-2.5C3.75,65.2.06,60.44.02,55.01c-.02-3.29-.12-6.66.51-9.86,1.43-7.29,7.63-12.69,15.04-13.67.49-.06.97-.18,1.52-.28ZM16.07,67.11v2.24c0,26.43,0,52.87,0,79.3,0,11.86,7.82,19.73,19.64,19.73,26.5.01,53,.01,79.5-.02,1.73,0,3.51-.11,5.19-.5,8.99-2.06,14.48-9.35,14.49-19.19.02-26.5,0-52.99,0-79.49,0-.67,0-1.34,0-2.08H16.07ZM75.38,61.79c14.15,0,28.31,0,42.46,0,6.8,0,13.59.02,20.39,0,3.74-.01,6.92-2.18,7.24-5.46.32-3.32.44-6.79-.17-10.04-1.15-6.16-6.45-9.8-13.42-9.8-37.6,0-75.19,0-112.79,0-.56,0-1.12,0-1.68.04-6.37.43-11.19,4.78-12.05,11.03-.26,1.9-.13,3.86-.14,5.79-.01,5.8,2.65,8.46,8.43,8.46,20.57,0,41.15,0,61.72,0ZM53.15,31.24c3.61,0,6.84.06,10.08-.05.59-.02,1.34-.57,1.71-1.1,2.99-4.22,5.97-8.45,8.81-12.77,1.13-1.72,2.45-2.32,4.48-2.31,13.84.08,27.68.04,41.52.04,3.35,0,4.01.67,4.01,4.06,0,3.97,0,7.94,0,12.02h9.81c0-.65,0-1.19,0-1.74,0-6.11,0-12.22,0-18.33,0-3.99-1.82-5.84-5.82-5.84-18.21,0-36.41.03-54.62,0-2.35,0-3.99.88-5.25,2.88-4.49,7.11-9.07,14.16-13.61,21.24-.33.51-.62,1.04-1.11,1.88ZM70.61,31.12h47.8v-10.66c-.29-.08-.46-.17-.64-.17-12.9-.01-25.79-.02-38.69,0-.47,0-1.13.27-1.39.63-2.34,3.28-4.61,6.62-7.08,10.18ZM42.23,31.16v-9.95h-19.68v9.95h19.68ZM47.7,11.41h-30.53v4.3h30.53v-4.3Z"/>
  <path class="cls-1" d="M75.42,157.31c-13.97,0-27.93,0-41.9,0-3.03,0-3.73-.69-3.73-3.74,0-23.94,0-47.88,0-71.82,0-2.97.79-3.75,3.78-3.75,27.93,0,55.87,0,83.8,0,3.07,0,3.85.8,3.85,3.89,0,23.88,0,47.76,0,71.63,0,3.08-.74,3.79-3.9,3.79-13.97,0-27.93,0-41.9,0ZM35.18,83.34v68.61h80.72v-68.61H35.18Z"/>
  <path class="cls-1" d="M60.94,102.17c.02-8.12,6.53-14.56,14.68-14.51,7.97.04,14.5,6.62,14.47,14.59-.03,8.02-6.73,14.65-14.73,14.56-8-.09-14.44-6.62-14.42-14.64ZM66.18,102.15c-.01,5.21,4.14,9.37,9.36,9.4,5,.03,9.27-4.24,9.31-9.31.03-5.08-4.15-9.33-9.21-9.36-5.27-.03-9.44,4.06-9.46,9.26Z"/>
  <path class="cls-1" d="M75.59,127.02c-10.35,0-20.7,0-31.05,0-.62,0-1.26.04-1.87-.04-1.34-.19-2.13-1.03-2.25-2.36-.12-1.35.59-2.29,1.88-2.66.64-.19,1.35-.17,2.03-.17,20.76,0,41.52,0,62.28,0,.62,0,1.26-.04,1.86.1,1.39.33,2.16,1.27,2.06,2.71-.1,1.42-.95,2.27-2.4,2.4-.56.05-1.12.02-1.68.03-10.29,0-20.57,0-30.86,0Z"/>
  <path class="cls-1" d="M75.36,142.7c-6.86,0-13.71,0-20.57,0-.56,0-1.13.05-1.68-.04-1.39-.24-2.25-1.06-2.27-2.52-.02-1.56.87-2.4,2.35-2.64.49-.08,1-.03,1.49-.03,13.84,0,27.67,0,41.51,0,.37,0,.75-.01,1.12,0,1.71.08,2.85,1.1,2.89,2.56.04,1.52-1.16,2.6-2.97,2.67-.44.02-.87,0-1.31,0-6.86,0-13.71,0-20.57,0Z"/>
</svg>