<?xml version="1.0" encoding="UTF-8"?>
<svg id="Calque_1" data-name="Calque 1" xmlns="http://www.w3.org/2000/svg" viewBox="0 0 172 169.41">
  <defs>
    <style>
      .cls-1 {
        fill: #fff;
        stroke-width: 0px;
      }
    </style>
  </defs>
  <path class="cls-1" d="M172,106.91c-1.91,3.39-3.39,3.96-7.15,2.75-2.13-.69-4.26-1.34-6.37-2.08-2.61-.91-3.88-3.26-3.15-5.67.75-2.47,3.22-3.75,5.92-2.94,2.52.75,5.09,1.42,7.45,2.52,1.29.6,2.21,2.02,3.3,3.06v2.35Z"/>
  <path class="cls-1" d="M162.03,58.41c0,3.39-1.38,6.14-3.79,8.47-8.71,8.46-17.39,16.96-26.11,25.41-1.1,1.07-1.53,2.11-1.25,3.71,2.14,12.17,4.2,24.35,6.25,36.53.76,4.5-.75,8.22-4.34,10.94-3.66,2.77-7.74,3.17-11.85,1.08-6.82-3.47-13.57-7.09-20.35-10.65-4.16-2.18-8.34-4.32-12.45-6.58-1.48-.81-2.72-.82-4.23-.02-10.76,5.72-21.55,11.39-32.35,17.02-6.65,3.46-14.41.38-16.33-6.62-.54-1.97-.51-4.23-.18-6.27,1.91-11.81,3.95-23.6,6.05-35.37.3-1.67-.17-2.75-1.31-3.85-8.64-8.38-17.22-16.81-25.87-25.17-3.56-3.44-4.9-7.5-3.37-12.19,1.54-4.7,5.03-7.12,9.94-7.81,11.96-1.67,23.9-3.5,35.85-5.19,1.58-.22,2.47-.96,3.14-2.34,5.35-10.94,10.74-21.87,16.15-32.79,2.79-5.64,8.7-8.07,14.35-5.97,2.99,1.11,5.03,3.22,6.42,6.06,5.35,10.88,10.75,21.74,16.07,32.64.71,1.45,1.63,2.17,3.28,2.4,12.13,1.7,24.24,3.51,36.35,5.27,5.81.85,9.92,5.52,9.92,11.29ZM125.75,136.74c1.79-.04,2.7-1.37,2.4-3.13-2.03-11.85-4-23.71-6.14-35.53-.9-4.95.31-8.95,3.96-12.45,8.57-8.21,17.02-16.54,25.51-24.83.4-.39.84-.77,1.13-1.23.96-1.52.07-3.15-1.97-3.45-11.95-1.78-23.89-3.6-35.86-5.23-4.86-.66-8.25-2.94-10.4-7.37-4.95-10.21-10.02-20.36-15.04-30.53-.42-.85-.81-1.73-1.29-2.54-1.07-1.83-3.04-1.79-4.12.05-.23.39-.41.8-.61,1.2-5.27,10.68-10.57,21.34-15.79,32.04-1.94,3.98-4.98,6.38-9.36,7.03-6.31.93-12.62,1.82-18.93,2.74-6.03.88-12.07,1.74-18.09,2.66-1.74.27-2.6,1.76-1.89,3.17.27.53.76.96,1.2,1.38,8.65,8.45,17.3,16.89,25.97,25.32,3.11,3.02,4.45,6.59,3.7,10.94-2.09,12.07-4.11,24.14-6.19,36.21-.2,1.17-.35,2.23.7,3.05,1.14.89,2.19.37,3.27-.19,10.59-5.57,21.21-11.08,31.75-16.72,4.27-2.28,8.32-2.34,12.6-.05,10.55,5.64,21.17,11.16,31.76,16.71.63.33,1.31.59,1.73.77Z"/>
  <path class="cls-1" d="M81.54,160.82c0-1.51-.1-3.02.02-4.52.21-2.44,2.11-4.09,4.49-4.07,2.32.02,4.26,1.62,4.38,3.98.16,3.06.16,6.15,0,9.21-.12,2.36-2.07,3.97-4.38,3.99-2.37.02-4.28-1.64-4.49-4.07-.13-1.5-.02-3.01-.02-4.52Z"/>
  <path class="cls-1" d="M11.34,98.72c3.01-.04,4.89,1.39,5.38,3.38.5,2.02-.38,4.31-2.32,5.07-3.01,1.17-6.1,2.18-9.23,3.01-2.01.53-4.06-.83-4.83-2.77-.78-1.97-.27-4.45,1.63-5.29,3.3-1.46,6.79-2.49,9.36-3.41Z"/>
  <path class="cls-1" d="M36.36,5.4c.66.43,2.05.99,2.93,2.01,1.75,2.03,3.25,4.27,4.77,6.48,1.55,2.26,1.11,4.88-.96,6.39-2.05,1.5-4.71,1.07-6.37-1.11-1.66-2.18-3.26-4.4-4.81-6.66-1.04-1.51-1.07-3.16-.18-4.76.83-1.48,2.17-2.19,4.62-2.34Z"/>
  <path class="cls-1" d="M141.03,10.12c-.38.91-.63,1.91-1.17,2.71-1.44,2.13-2.97,4.2-4.52,6.25-1.73,2.29-4.39,2.75-6.47,1.2-2.12-1.58-2.49-4.18-.83-6.54,1.54-2.2,3.11-4.38,4.75-6.5,1.31-1.69,3.23-2.17,5.1-1.47,1.83.68,2.95,2.3,3.14,4.35Z"/>
</svg>