<?xml version="1.0" encoding="UTF-8"?>
<svg id="Calque_1" data-name="Calque 1" xmlns="http://www.w3.org/2000/svg" viewBox="0 0 187.88 187.94">
  <defs>
    <style>
      .cls-1 {
        fill: #fff;
        stroke-width: 0px;
      }
    </style>
  </defs>
  <path class="cls-1" d="M139.43,187.94c-2.39-.44-4.8-.82-7.17-1.34-6.79-1.49-12.67-5.06-18.62-8.4-21.6-12.1-41.2-26.89-58.74-44.38-18.64-18.58-34.25-39.44-46.84-62.56-3.04-5.58-6.02-11.19-7.16-17.54C.58,51.99.3,50.25,0,48.51c0-2.32,0-4.65,0-6.97,1.1-4.42,1.69-9.05,3.4-13.22C8.68,15.41,17.54,5.85,31.04,1.3c4.59-1.55,9.36-2.11,13.83.6,1.18.72,2.34,1.62,3.18,2.69,10.22,13.03,20.4,26.1,30.55,39.18,3.74,4.81,3.23,11.74-1.11,16.08-3.11,3.11-6.26,6.19-9.38,9.29-3.98,3.95-3.67,9.12.31,13.09,2.49,2.48,4.38,5.54,6.63,8.27,8.9,10.81,18.96,20.4,30.41,28.5.15.11.29.22.43.34,4.92,4.3,8.98,4.18,13.58-.41,2.86-2.85,5.7-5.71,8.56-8.56,4.33-4.31,11.43-4.72,16.26-.96,12.2,9.5,24.25,19.19,36.65,28.43,7.98,5.95,7.82,12.25,5.71,19.03-3.24,10.46-10.25,18.04-19.32,23.83-6.07,3.87-12.71,6.18-19.87,6.97-.36.04-.7.18-1.06.27h-6.97ZM141.71,179.4c.61,0,1.22.02,1.83,0,10.88-.38,19.98-4.75,27.42-12.56,4.28-4.5,7.52-9.62,8.31-15.98.27-2.17-.3-3.89-2.18-5.24-2.93-2.1-5.74-4.37-8.59-6.58-9.61-7.46-19.21-14.93-28.82-22.39-2.34-1.81-4.06-1.7-6.12.37-2.8,2.82-5.57,5.68-8.4,8.47-6.06,5.97-14.59,7.13-21.48,2.68-3.23-2.08-6.18-4.58-9.21-6.96-12.93-10.15-24.01-22.05-33.7-35.31-5.09-6.96-4.94-15.57.86-22,2.82-3.13,5.92-6.01,8.9-9,2.61-2.61,2.69-4.18.4-7.12-9.61-12.35-19.22-24.7-28.81-37.07-1.2-1.55-2.73-2.34-4.61-1.98-2.32.45-4.74.85-6.85,1.83C13.72,18.46,1.71,40.46,12.9,62.37c9.23,18.09,20.54,34.84,33.77,50.25,21.71,25.28,47.28,45.75,76.76,61.32,5.73,3.03,11.7,5.22,18.28,5.46Z"/>
</svg>