<?xml version="1.0" encoding="UTF-8"?>
<svg id="Calque_1" data-name="Calque 1" xmlns="http://www.w3.org/2000/svg" viewBox="0 0 198 109.25">
  <defs>
    <style>
      .cls-1 {
        fill: #c63;
        stroke-width: 0px;
      }
    </style>
  </defs>
  <path class="cls-1" d="M13.69,99.23c-2.86,2.02-5.3,3.73-7.72,5.47-1.3.93-2.85,1.6-4.1.49-.93-.82-1.72-2.33-1.75-3.55-.17-6.25-.01-12.51-.12-18.76-.04-2.16.76-3.57,2.5-4.8,23.08-16.34,46.12-32.72,69.17-49.09,2.9-2.06,5.75-4.17,8.7-6.15,1.12-.75,1.7-1.54,1.57-2.94-.12-1.27-.05-2.56,0-3.84C82.34,7.22,89.98.01,98.97,0c9-.01,17.02,7.15,16.92,16.01-.05,4.52,1.6,6.91,5.13,9.32,11.5,7.85,22.74,16.06,34.09,24.13.51.36,1.04.68,1.76,1.16v-9.63c-1.14,0-2.19.05-3.24,0-2.06-.11-3.38-1.3-3.41-3.33-.08-4.55-.08-9.1,0-13.65.03-2.09,1.4-3.43,3.56-3.44,11.23-.05,22.46-.05,33.69,0,2.36,0,3.62,1.4,3.65,3.81.04,4.05.02,8.1.01,12.16,0,3.37-1.09,4.45-4.45,4.49-.7,0-1.4,0-2.22,0-.06.7-.15,1.24-.15,1.79,0,8.6-.04,17.2.05,25.8,0,.87.62,2,1.31,2.54,3.1,2.38,6.27,4.66,9.53,6.82,1.98,1.31,2.85,2.87,2.79,5.3-.14,5.83-.07,11.66-.03,17.49.01,1.84-.02,3.62-1.93,4.59-1.84.94-3.25-.06-4.67-1.09-2.22-1.61-4.48-3.17-7.07-5,0,2.07-.05,3.74.01,5.41.06,1.68-.28,3.16-1.86,3.99-1.59.84-2.99.21-4.34-.75-12.75-9.04-25.51-18.06-38.27-27.08-13.05-9.23-26.12-18.43-39.13-27.71-1.33-.95-2.15-.88-3.47.06-25.4,18.09-50.84,36.13-76.28,54.17-.64.45-1.25.94-1.92,1.34-2.51,1.48-5.19.06-5.32-2.87-.09-2.03-.02-4.08-.02-6.56ZM189.06,94.14c.59.42,1.21.8,2.06,1.37,0-3.76-.07-7.1.03-10.44.04-1.31-.46-2.03-1.49-2.75-6.29-4.4-12.53-8.86-18.78-13.31-19.68-14.01-39.35-28.03-59.06-42-1.8-1.28-2.77-2.7-2.61-4.95.12-1.77.06-3.55,0-5.33-.17-5.58-4.63-9.93-10.18-9.94-5.66-.02-10.15,4.35-10.3,10.04-.04,1.78-.11,3.56.01,5.33.15,2.17-.78,3.58-2.51,4.8-9.07,6.37-18.09,12.81-27.13,19.22-16.91,12.01-33.83,24.02-50.72,36.07-.66.47-1.45,1.33-1.48,2.04-.15,3.61-.07,7.23-.07,11.26.95-.64,1.53-1.02,2.1-1.42,28.91-20.52,57.83-41.03,86.74-61.55,2.93-2.08,3.66-2.09,6.63.02M177.22,98.85c.92-3.26-.32-5.01-2.78-6.74-24.57-17.29-49.06-34.69-73.52-52.13-1.44-1.03-2.36-1.05-3.82-.01-24.58,17.52-49.17,35.03-73.87,52.37-2.62,1.84-3.11,3.76-2.5,6.68.76-.5,1.4-.9,2.02-1.34,24.33-17.26,48.66-34.52,72.98-51.78,3.03-2.15,3.54-2.14,6.6.02,20.01,14.14,40.02,28.29,60.03,42.43,4.91,3.47,9.83,6.94,14.86,10.5ZM163.83,41.11c0,3.22.31,6.36-.08,9.42-.49,3.9.94,6.28,4.27,8.2,3.21,1.86,6.11,4.25,9.31,6.52v-24.14h-13.5ZM157.11,34.03h27.01v-6.57h-27.01v6.57Z"/>
</svg>