<?xml version="1.0" encoding="UTF-8"?>
<svg id="Calque_1" data-name="Calque 1" xmlns="http://www.w3.org/2000/svg" viewBox="0 0 155.15 155.19">
  <defs>
    <style>
      .cls-1 {
        fill: #c63;
        stroke-width: 0px;
      }
    </style>
  </defs>
  <path class="cls-1" d="M13.04,6.51v129.13h129.01V6.54c-.8,0-1.59,0-2.38,0-27.66,0-55.32,0-82.99-.01-.93,0-1.9-.03-2.78-.28-1.5-.44-2.25-1.62-2.17-3.14.08-1.51.92-2.59,2.46-2.92.73-.16,1.49-.17,2.24-.17,29.16,0,58.33,0,87.49,0,3.83,0,4.69.89,4.69,4.8,0,43.06,0,86.13-.03,129.19,0,1.51.29,2.43,1.76,3.23,2.87,1.56,4.48,4.16,4.68,7.45.14,2.37.13,4.76.05,7.13-.07,2.09-1.2,3.16-3.3,3.34-.62.05-1.25.03-1.88.03-48.25,0-96.5,0-144.76,0-.93,0-1.9.01-2.79-.21-1.61-.4-2.31-1.63-2.33-3.23-.03-2.25-.07-4.51.03-6.76.16-3.53,1.85-6.24,4.93-7.89,1.28-.69,1.54-1.47,1.54-2.79-.03-30.73-.03-61.46-.03-92.2,0-12.52,0-25.04,0-37.55C6.51.95,7.44.02,11.08.01c5.63,0,11.27-.03,16.9.02.97,0,2.04.16,2.87.61,1.37.74,1.72,2.12,1.27,3.58-.48,1.58-1.72,2.26-3.3,2.27-4.38.03-8.76.01-13.14.01-.81,0-1.62,0-2.64,0ZM6.53,148.54h141.91c.66-4.51-.05-6.39-5.29-6.38-43.86.09-87.71.05-131.57.05-.69,0-1.38-.04-2.06.03-1.74.19-2.86,1.32-2.98,3.05-.07,1.04-.01,2.09-.01,3.24Z"/>
  <path class="cls-1" d="M77.65,12.98c17.9,0,35.8,0,53.7,0,3.36,0,4.4,1.02,4.4,4.33,0,35.87,0,71.74,0,107.61,0,3.32-1.07,4.41-4.37,4.41-35.87,0-71.73,0-107.6,0-3.32,0-4.4-1.08-4.4-4.38,0-35.87,0-71.74,0-107.61,0-3.34,1.03-4.36,4.37-4.36,17.96,0,35.93,0,53.89,0ZM25.95,19.51v103.16h64.37V19.51H25.95ZM129.16,122.72V58.3h-32.03v64.41h32.03ZM129.2,51.62V19.54h-32.11v32.08h32.11Z"/>
  <path class="cls-1" d="M45.25,3.18c.04,1.72-1.41,3.26-3.14,3.31-1.72.06-3.22-1.39-3.26-3.15-.04-1.81,1.3-3.23,3.1-3.27,1.79-.04,3.25,1.34,3.3,3.1Z"/>
</svg>